<svg width="42" height="42" viewBox="0 0 42 42" fill="none" xmlns="http://www.w3.org/2000/svg">
<g id="icone compte">
<path id="Vector" d="M30.7598 24.2733C29.5102 23.0489 28.0632 22.0822 26.4189 21.5022C27.8659 20.2133 28.7867 18.28 28.7867 16.2178C28.7867 12.2867 25.4981 9 21.4203 9C17.3425 9 14.054 12.2222 14.054 16.2178C14.054 18.3444 14.9748 20.2133 16.4218 21.5022C14.7775 22.0822 13.3305 22.9844 12.0809 24.2733C7.73999 28.9133 8.00307 36.3889 8.00307 36.7111C8.06885 37.4844 8.66078 38 9.45003 38C10.2393 38 10.7655 37.3556 10.7655 36.5822C10.7655 36.5178 10.5024 29.9444 14.2513 26.0778C16.0271 24.2733 18.4606 23.3711 21.4861 23.3711C24.5116 23.3711 26.9451 24.2733 28.7209 26.0778C32.4699 29.88 32.2068 36.4533 32.2068 36.5822C32.141 37.3556 32.7329 37.9356 33.5222 38H33.588C34.3114 38 34.9034 37.42 34.9691 36.7111C35.0349 36.3889 35.3638 28.9133 30.7598 24.2733ZM16.9479 16.2178C16.9479 13.7689 18.9868 11.7067 21.5519 11.7067C24.0512 11.7067 26.1558 13.7044 26.1558 16.2178C26.1558 18.6667 24.1169 20.7289 21.5519 20.7289C18.9868 20.6644 16.9479 18.6667 16.9479 16.2178Z" fill="#2C2C2C"/>
</g>
</svg>
