<svg width="42" height="42" viewBox="0 0 42 42" fill="none" xmlns="http://www.w3.org/2000/svg">
<g id="Icone dictionnaire menu">
<path id="Vector" d="M33.25 5.68753H11.8125C10.6875 5.65451 9.59525 6.06884 8.77518 6.83971C7.9551 7.61059 7.47407 8.67511 7.4375 9.80003V31.5C7.48316 32.8199 8.05047 34.0678 9.01499 34.9701C9.97952 35.8722 11.2625 36.355 12.5825 36.3125H33.25C33.5967 36.308 33.9279 36.1683 34.1731 35.9231C34.4183 35.678 34.5579 35.3467 34.5625 35V7.00003C34.5579 6.65334 34.4183 6.32213 34.1731 6.07696C33.9279 5.8318 33.5967 5.69206 33.25 5.68753ZM31.9375 33.6875H12.5825C11.9584 33.7309 11.3426 33.5249 10.8702 33.1147C10.3978 32.7047 10.1073 32.1241 10.0625 31.5C10.1073 30.8761 10.3978 30.2953 10.8702 29.8853C11.3426 29.4753 11.9584 29.2693 12.5825 29.3125H31.9375V33.6875ZM31.9375 26.6875H12.5825C11.7015 26.6886 10.8349 26.9112 10.0625 27.335V9.80003C10.1026 9.37284 10.308 8.9782 10.6349 8.70031C10.9619 8.42242 11.3844 8.28327 11.8125 8.31253H31.9375V26.6875Z" fill="#2C2C2C"/>
<path id="Vector_2" d="M15.3125 15.3125H26.6875C27.0356 15.3125 27.3695 15.1742 27.6155 14.9281C27.8617 14.6819 28 14.3481 28 14C28 13.6519 27.8617 13.3181 27.6155 13.0719C27.3695 12.8258 27.0356 12.6875 26.6875 12.6875H15.3125C14.9644 12.6875 14.6306 12.8258 14.3844 13.0719C14.1383 13.3181 14 13.6519 14 14C14 14.3481 14.1383 14.6819 14.3844 14.9281C14.6306 15.1742 14.9644 15.3125 15.3125 15.3125Z" fill="#2C2C2C"/>
<path id="Vector_3" d="M15.3125 21.4375H26.6875C27.0356 21.4375 27.3695 21.2993 27.6155 21.053C27.8617 20.807 28 20.4731 28 20.125C28 19.7769 27.8617 19.443 27.6155 19.197C27.3695 18.9507 27.0356 18.8125 26.6875 18.8125H15.3125C14.9644 18.8125 14.6306 18.9507 14.3844 19.197C14.1383 19.443 14 19.7769 14 20.125C14 20.4731 14.1383 20.807 14.3844 21.053C14.6306 21.2993 14.9644 21.4375 15.3125 21.4375Z" fill="#2C2C2C"/>
</g>
</svg>
