<svg width="34" height="34" viewBox="0 0 34 34" fill="none" xmlns="http://www.w3.org/2000/svg">
<g id="Icone exercice">
<path id="Vector" d="M7.4375 25.5C6.26875 25.5 5.3125 24.5438 5.3125 23.375V10.625C5.3125 9.45625 6.26875 8.5 7.4375 8.5C8.60625 8.5 9.5625 9.45625 9.5625 10.625V23.375C9.5625 24.5438 8.60625 25.5 7.4375 25.5Z" stroke="#2C2C2C" stroke-width="2" stroke-miterlimit="10" stroke-linecap="round" stroke-linejoin="round"/>
<path id="Vector_2" d="M3.1875 22.3125C2.01875 22.3125 1.0625 21.3563 1.0625 20.1875V13.8125C1.0625 12.6437 2.01875 11.6875 3.1875 11.6875C4.35625 11.6875 5.3125 12.6437 5.3125 13.8125V20.1875C5.3125 21.3563 4.35625 22.3125 3.1875 22.3125Z" stroke="#2C2C2C" stroke-width="2" stroke-miterlimit="10" stroke-linecap="round" stroke-linejoin="round"/>
<path id="Vector_3" d="M26.5625 8.5C27.7313 8.5 28.6875 9.45625 28.6875 10.625V23.375C28.6875 24.5438 27.7313 25.5 26.5625 25.5C25.3937 25.5 24.4375 24.5438 24.4375 23.375V10.625C24.4375 9.45625 25.3937 8.5 26.5625 8.5Z" stroke="#2C2C2C" stroke-width="2" stroke-miterlimit="10" stroke-linecap="round" stroke-linejoin="round"/>
<path id="Vector_4" d="M30.8125 11.6875C31.9813 11.6875 32.9375 12.6437 32.9375 13.8125V20.1875C32.9375 21.3563 31.9813 22.3125 30.8125 22.3125C29.6437 22.3125 28.6875 21.3563 28.6875 20.1875V13.8125C28.6875 12.6437 29.6437 11.6875 30.8125 11.6875Z" stroke="#2C2C2C" stroke-width="2" stroke-miterlimit="10" stroke-linecap="round" stroke-linejoin="round"/>
<path id="Vector_5" d="M9.5625 17H24.4375" stroke="#2C2C2C" stroke-width="2" stroke-miterlimit="10" stroke-linecap="round" stroke-linejoin="round"/>
</g>
</svg>
