<svg width="42" height="42" viewBox="0 0 42 42" fill="none" xmlns="http://www.w3.org/2000/svg">
<g id="icone home">
<path id="Vector" d="M34.355 18.375L24.9575 8.97745C22.9625 6.98245 19.76 6.98245 17.765 8.97745L8.315 18.375C7.895 18.795 7.895 19.4775 8.315 19.95C8.735 20.37 9.4175 20.37 9.89 19.95L10.5725 19.2675V31.1849C10.5725 33.2324 12.095 34.4925 14.615 34.4925C17.03 34.4925 18.7625 33.1274 18.7625 31.1849V24.3075C18.7625 23.625 19.0775 22.47 21.335 22.47C23.5925 22.47 23.9075 23.625 23.9075 24.3075V31.1849C23.9075 32.0249 24.2225 32.76 24.8 33.3375C25.535 34.0725 26.69 34.4925 28.055 34.4925C30.575 34.4925 32.0975 33.2324 32.0975 31.1849V19.2675L32.78 19.95C32.99 20.16 33.2525 20.265 33.5675 20.265C33.83 20.265 34.145 20.16 34.355 19.95C34.775 19.53 34.775 18.8475 34.355 18.375ZM29.8925 31.1849C29.8925 31.9199 29.2625 32.2875 28.055 32.2875C27.32 32.2875 26.69 32.0775 26.375 31.7625C26.2175 31.605 26.165 31.395 26.165 31.1325V24.3075C26.165 21.84 24.275 20.265 21.3875 20.265C18.5 20.265 16.61 21.84 16.61 24.3075V31.1849C16.61 32.2874 14.7725 32.2875 14.6675 32.2875C12.83 32.2875 12.83 31.4999 12.83 31.1849V17.0625L19.34 10.5525C19.865 10.0275 20.6 9.71245 21.3875 9.71245C22.175 9.71245 22.91 10.0275 23.435 10.5525L29.945 17.0625L29.8925 31.1849Z" fill="#2C2C2C"/>
</g>
</svg>
