    <svg
      width="512"
      height="512"
      viewBox="0 0 48 48"
      fill="none"
      xmlns="http://www.w3.org/2000/svg"
    >
      <g clip-path="url(#clip0_101_8)">
        <path d="M48 0H0V48H48V0Z" fill="#FF6928" />
        <path
          d="M35.43 8.36401C33.558 8.36401 32.04 9.88201 32.04 11.754V15.702C31.668 15.564 31.266 15.486 30.846 15.486C30 15.486 29.226 15.804 28.632 16.314C28.026 15.708 27.186 15.342 26.262 15.342C25.77 15.342 25.296 15.444 24.876 15.642C24.468 15.858 24.15 16.092 23.904 16.32C23.67 16.074 23.406 15.858 23.106 15.696C22.626 15.438 22.074 15.288 21.486 15.288C20.898 15.288 20.352 15.438 19.866 15.696C18.906 16.224 18.234 17.196 18.12 18.336H18.096V18.654C18.096 18.66 18.096 18.672 18.096 18.678V19.242V20.724V22.86C17.274 21.744 16.38 20.532 15.9 19.926C15.792 19.776 15.678 19.656 15.6 19.578L15.594 19.572L15.546 19.518H15.54L15.522 19.5C15.162 19.128 14.838 18.864 14.472 18.642C14.202 18.474 13.938 18.354 13.656 18.264C13.308 18.15 12.942 18.09 12.576 18.09H12.516C11.466 18.102 10.494 18.594 9.864 19.44C9.228 20.292 9.024 21.354 9.3 22.38C9.438 22.854 9.738 23.592 10.194 24.576C10.848 25.992 11.856 27.804 13.674 30.834C15.246 33.474 16.704 34.944 19.014 36.882C21.066 38.604 24.24 39.636 27.504 39.636C32.826 39.636 36.888 36.996 38.112 32.736C38.478 31.47 38.82 30.12 38.826 28.848V11.748C38.82 9.88201 37.296 8.36401 35.43 8.36401ZM27.498 37.872C24.702 37.872 21.906 37.014 20.154 35.532C18.078 33.78 16.704 32.46 15.192 29.934C13.332 26.826 12.402 25.128 11.802 23.832C11.202 22.536 11.052 22.044 11.016 21.912C10.878 21.426 10.974 20.916 11.28 20.514C11.586 20.106 12.048 19.872 12.552 19.866H12.576C12.774 19.866 12.948 19.902 13.11 19.95C13.272 20.004 13.416 20.07 13.548 20.154C13.788 20.304 14.004 20.484 14.256 20.748L14.31 20.796L14.358 20.844L14.328 20.808C14.34 20.82 14.352 20.832 14.358 20.838C14.376 20.856 14.388 20.874 14.412 20.898C14.436 20.922 14.454 20.946 14.472 20.958C14.472 20.958 14.466 20.952 14.46 20.952C14.466 20.958 14.472 20.964 14.478 20.97C15.318 22.002 18.366 26.238 18.366 26.238C18.528 26.454 18.78 26.58 19.038 26.58C19.122 26.58 19.218 26.562 19.302 26.532C19.638 26.424 19.878 26.1 19.878 25.74V25.602C20.358 25.866 20.91 26.016 21.498 26.016C22.512 26.016 23.418 25.566 24.042 24.858C24.636 25.422 25.446 25.77 26.292 25.77C27.228 25.77 28.056 25.326 28.602 24.648C29.142 25.308 29.958 25.746 30.882 25.746C32.52 25.746 33.834 24.42 33.834 22.782V11.754C33.834 10.86 34.566 10.134 35.46 10.134C36.354 10.134 37.08 10.86 37.08 11.754V28.062C37.08 28.062 37.08 28.17 37.08 28.452V28.848C37.08 29.85 36.804 30.996 36.444 32.25C35.268 36.21 31.38 37.872 27.498 37.872ZM21.48 17.052C22.374 17.052 23.1 17.784 23.1 18.678V20.964V22.794C23.1 22.806 23.1 22.818 23.1 22.824V22.86C23.1 23.754 22.374 24.48 21.48 24.48C20.592 24.48 19.878 23.766 19.86 22.884V18.504C19.944 17.694 20.64 17.052 21.48 17.052ZM26.256 17.106C27.15 17.106 27.876 17.826 27.876 18.726V22.788C27.876 23.688 27.168 24.42 26.268 24.42C25.668 24.42 25.146 24.096 24.87 23.616C24.726 23.376 24.648 23.088 24.642 22.788V18.726C24.642 18.474 24.702 18.234 24.81 18.018C25.062 17.478 25.614 17.106 26.256 17.106ZM32.46 22.776C32.46 23.664 31.746 24.39 30.852 24.396C29.964 24.39 29.22 23.664 29.214 22.776V18.876C29.214 17.982 29.94 17.256 30.84 17.256C31.734 17.256 32.46 17.976 32.46 18.876V22.776Z"
          fill="white"
        />
      </g>
      <defs>
        <clipPath id="clip0_101_8">
          <rect width="48" height="48" rx="10" fill="white" />
        </clipPath>
      </defs>
    </svg>